<svg version="1.1" xmlns="http://www.w3.org/2000/svg" xmlns:xlink="http://www.w3.org/1999/xlink" x="0px" y="0px"
	 viewBox="0 0 120 120" enable-background="new 0 0 120 120" xml:space="preserve">
	<path fill="#FF66B2" d="M105.3,71.7l-7.9-1.8c1.8-8.2,1.5-18-1.8-29.5c-1.4-4.8-3.3-10-5.9-15.4c-7.2,3-9,4.8-12,9.3
		c-8.2-4.2-22.7-8.2-36.5-0.7c-1.6-4.1-5.1-7.4-10.5-10.6c-2.7,5.9-4.7,11.5-6.2,16.8c-3.3,12-3.6,22.2-1.7,30.5L14.6,72
		c-0.7,0.2-1.2,0.9-1,1.7c0.2,0.6,0.7,1.1,1.4,1.1c0.1,0,0.2,0,0.3,0l8-1.8c0.2,0.7,0.5,1.6,0.7,2.3l-7.4,2.8
		c-0.7,0.3-1.1,1-0.8,1.7c0.2,0.5,0.7,0.9,1.3,0.9c0.2,0,0.3,0,0.5-0.1l7.5-2.8c0.3,0.7,0.6,1.5,1,2.1l-7.5,3.8
		c-0.6,0.4-0.9,1.2-0.6,1.8c0.3,0.5,0.7,0.7,1.2,0.7c0.2,0,0.5-0.1,0.6-0.2l7.6-3.8c14.4,23.5,50.9,23,65.2-0.4l7.5,3.8
		c0.2,0.1,0.5,0.2,0.6,0.2c0.5,0,1-0.3,1.2-0.7c0.4-0.6,0.1-1.5-0.6-1.8l-7.3-3.9c0.4-0.7,0.7-1.4,1-2.1l7.4,2.8
		c0.2,0.1,0.3,0.1,0.5,0.1c0.5,0,1.1-0.4,1.3-0.9c0.3-0.7-0.1-1.5-0.8-1.7L96.1,75c0.3-0.7,0.5-1.5,0.7-2.3l8,1.8c0.1,0,0.2,0,0.3,0
		c0.6,0,1.2-0.5,1.4-1.1C106.5,72.6,106,71.9,105.3,71.7z M44.9,80.4c-0.9,0-1.8-0.3-2.4-1c-1.3-1.3-1.3-3.6,0-4.9L53.9,63
		L42.5,51.5c-1.3-1.3-1.3-3.6,0-4.9c1.3-1.3,3.5-1.3,4.9,0l13.9,14c0.6,0.6,1,1.5,1,2.5c0,0.9-0.4,1.8-1,2.5l-13.9,14
		C46.7,80.1,45.8,80.4,44.9,80.4z M75.2,80.5H61.6c-1.9,0-3.5-1.5-3.5-3.5c0-2,1.6-3.5,3.5-3.5h13.6c1.9,0,3.5,1.6,3.5,3.5
		C78.7,78.9,77.1,80.4,75.2,80.5z"/>
</svg>
